<svg width="215" height="82" viewBox="0 0 215 82" fill="none" xmlns="http://www.w3.org/2000/svg">
<g clip-path="url(#clip0_125_77)">
<path fill-rule="evenodd" clip-rule="evenodd" d="M60.1766 78.3588C62.2214 78.3588 63.2439 78.3588 63.2439 78.3588C58.1318 77.1936 54.4803 72.6785 54.3342 67.4352C54.1881 62.1918 57.8396 57.5311 62.8057 56.2203C64.9966 55.929 66.6032 55.7833 67.7717 55.7833C69.8165 55.6377 71.2771 55.2007 72.2996 54.6181C74.1983 53.4529 74.3444 51.5595 72.7377 48.6466C72.2996 48.064 72.2996 47.4814 72.4456 47.0444C72.7377 46.4618 73.0299 46.0249 73.322 45.4423C73.9062 44.8597 73.9062 44.4228 73.1759 44.4228C72.5917 44.4228 72.0074 44.4228 71.5693 44.4228C70.6929 44.4228 70.1087 44.1315 69.8165 43.6945C70.985 43.6945 71.7153 43.4032 72.2996 42.9663C73.322 42.0924 73.468 41.2185 72.7377 40.6359L70.985 39.0338C70.985 39.0338 71.7153 38.3055 73.322 36.7034C74.6365 35.1013 74.0523 33.6448 71.2771 32.1883C69.9626 31.6057 68.2099 30.5862 66.165 29.1297C67.3335 28.1101 68.2099 27.0906 68.7941 25.9254C68.3559 26.508 67.1875 27.2362 65.5808 28.1101C64.5584 19.5169 59.0081 12.0888 51.1209 8.59326C58.4239 17.7691 59.4463 28.8384 54.0421 42.0924C43.3797 62.0462 45.4246 74.135 60.1766 78.3588Z" fill="#fff"/>
<path fill-rule="evenodd" clip-rule="evenodd" d="M62.8057 7.71932C48.1997 0.436899 30.6725 3.49551 19.4259 15.293C8.17933 27.0905 6.13449 44.714 14.1678 58.8419C22.2011 72.9698 38.5598 80.1065 54.4803 76.611C37.8295 81.4174 20.1562 74.4263 11.2466 59.7158C2.33694 44.8596 4.67389 25.9254 16.7969 13.6909C28.9198 1.45644 47.9076 -1.01958 62.8057 7.71932Z" fill="#fff"/>
<path fill-rule="evenodd" clip-rule="evenodd" d="M8.90965 43.5488C7.44905 47.7726 8.17935 52.2877 10.8084 55.9289C9.20177 51.2682 9.63995 46.1705 11.9769 41.9467C14.3139 37.5772 18.2575 34.5186 23.0775 33.2078C17.8193 33.936 13.7296 36.7033 10.8084 41.3641C12.5611 33.936 17.6732 28.984 25.9986 26.3623C16.0666 28.1101 10.3702 33.936 8.90965 43.5488Z" fill="#fff"/>
<path fill-rule="evenodd" clip-rule="evenodd" d="M30.0884 74.4263C33.1556 75.7371 34.6162 76.4654 34.6162 76.4654C27.3132 73.5524 23.0775 65.6874 24.8302 57.8224C22.0551 63.9396 24.392 71.0764 30.0884 74.4263Z" fill="#fff"/>
<path fill-rule="evenodd" clip-rule="evenodd" d="M35.3465 4.22375C34.3241 4.3694 33.7398 4.80635 33.5938 5.38894C38.8519 4.80635 44.2561 5.68024 48.93 8.01061C44.9864 5.53459 40.1664 4.22375 35.3465 4.22375Z" fill="#fff"/>
<path fill-rule="evenodd" clip-rule="evenodd" d="M19.2799 36.1208C20.5944 37.1403 21.909 37.7229 23.0775 38.3055C22.055 37.4316 21.1787 36.4121 20.1563 35.5382C23.8078 35.5382 25.9987 37.4316 26.875 41.0728C22.7853 41.2185 20.3023 39.6164 19.2799 36.1208Z" fill="#fff"/>
<path fill-rule="evenodd" clip-rule="evenodd" d="M24.5381 32.9165C25.9987 32.9165 27.3132 32.9165 28.4817 32.6252C27.3132 32.4796 25.9987 32.1883 24.8302 32.0426C27.6053 30.1492 30.2344 30.4405 32.7174 32.7709C29.7962 35.1013 27.0211 35.2469 24.5381 32.9165Z" fill="#fff"/>
<path fill-rule="evenodd" clip-rule="evenodd" d="M27.1671 26.3623C28.6277 26.071 29.9423 25.7797 30.9647 25.3428C29.7962 25.3428 28.4817 25.3428 27.3132 25.3428C29.6501 23.0124 32.2792 22.8668 35.2004 24.6146C32.7174 27.5275 30.0883 28.1101 27.1671 26.3623Z" fill="#fff"/>
<path fill-rule="evenodd" clip-rule="evenodd" d="M20.3023 26.9449C21.0326 25.6341 21.6168 24.4689 21.9089 23.3037C21.1786 24.3232 20.4483 25.1971 19.718 26.2167C19.4259 22.8668 20.8865 20.682 24.0998 19.5168C24.6841 23.1581 23.3695 25.6341 20.3023 26.9449Z" fill="#fff"/>
<path fill-rule="evenodd" clip-rule="evenodd" d="M42.5034 8.01066C43.2337 9.32149 43.964 10.341 44.8403 11.2149C44.4021 10.0497 43.964 8.88455 43.3797 7.71936C46.447 9.0302 47.6155 11.5062 46.8852 14.8561C43.3797 13.6909 41.9191 11.3606 42.5034 8.01066Z" fill="#fff"/>
<path fill-rule="evenodd" clip-rule="evenodd" d="M60.1767 7.4281C60.3227 8.44764 60.6148 9.17588 61.053 9.90412C61.053 9.17588 60.907 8.30199 60.907 7.4281C62.5136 8.88458 62.8057 10.6324 61.6373 12.6714C59.5924 11.215 59.1542 9.46718 60.1767 7.4281Z" fill="#fff"/>
<path fill-rule="evenodd" clip-rule="evenodd" d="M64.5585 9.03018C65.873 9.75842 67.0415 10.341 68.0639 10.6323C67.1875 9.90407 66.1651 9.03018 65.1427 8.30193C68.5021 8.01064 70.5469 9.61277 71.5693 12.817C68.21 13.5453 65.727 12.2344 64.5585 9.03018Z" fill="#fff"/>
<path fill-rule="evenodd" clip-rule="evenodd" d="M62.8057 5.09766C64.2663 4.80636 65.5808 4.51507 66.6032 4.07812C65.4347 4.07812 64.1202 4.07812 62.9517 4.22377C65.2887 1.8934 67.9178 1.6021 70.8389 3.49553C68.3559 6.26285 65.7269 6.69979 62.8057 5.09766Z" fill="#fff"/>
<path fill-rule="evenodd" clip-rule="evenodd" d="M25.8526 57.3855C26.4369 55.7834 26.729 54.4725 26.875 53.1617C26.2908 54.3269 25.7066 55.4921 24.9763 56.8029C23.9538 53.3073 25.1223 50.6857 28.4817 48.7922C29.7962 52.5791 28.9199 55.4921 25.8526 57.3855Z" fill="#fff"/>
<path fill-rule="evenodd" clip-rule="evenodd" d="M22.6392 61.1723C22.055 59.7158 21.3247 58.405 20.5944 57.3854C20.8865 58.6963 21.3247 60.0071 21.6168 61.3179C18.5495 59.4245 17.6732 56.6572 18.8417 53.016C22.4932 54.9094 23.8077 57.5311 22.6392 61.1723Z" fill="#fff"/>
<path fill-rule="evenodd" clip-rule="evenodd" d="M25.4144 62.3374C26.875 61.4636 27.8974 60.5897 28.7737 59.7158C27.6053 60.2984 26.2907 60.7353 24.9762 61.3179C26.4368 57.968 28.9198 56.6572 32.7174 57.2398C31.5489 61.0266 29.0659 62.7744 25.4144 62.3374Z" fill="#fff"/>
<path fill-rule="evenodd" clip-rule="evenodd" d="M32.7174 0C17.3811 3.34991 5.25818 15.0018 1.31457 30.1492C-2.62905 45.2966 2.33698 61.3179 14.1678 71.659C25.9987 82 42.6495 84.7673 57.1094 78.9414C42.9416 83.4565 27.3132 79.9609 16.3587 69.9112C5.5503 60.0071 0.876388 44.8597 4.23576 30.2949C7.59514 15.8757 18.4036 4.2238 32.7174 0Z" fill="#fff"/>
<path d="M98.0061 62.3375C96.8377 63.357 95.231 63.7939 93.1862 63.7939C91.1413 63.7939 89.3886 63.2113 88.2201 62.1918C86.9056 61.0266 86.1753 59.5701 86.1753 57.5311V56.9485H91.1413C91.1413 57.6767 91.2874 58.2593 91.5795 58.8419C91.8716 59.4245 92.4559 59.7158 93.1862 59.7158C94.5007 59.7158 95.0849 59.1332 95.0849 57.8224C95.0849 57.2398 94.7928 56.8028 94.3546 56.3659C94.2086 56.2202 93.9165 56.0746 93.6243 55.9289L93.1862 55.7833L90.9953 54.9094C90.265 54.6181 89.6807 54.3268 89.0965 54.0355C88.5122 53.7442 87.928 53.3073 87.6359 52.8703C86.6135 51.8508 86.1753 50.6856 86.1753 49.3747C86.1753 47.627 86.9056 46.1705 88.3662 45.1509C89.6807 44.1314 91.2874 43.6945 93.0401 43.6945C94.0625 43.6945 95.0849 43.8401 95.9613 44.2771C96.9837 44.714 97.714 45.2966 98.4443 46.0248C99.3207 47.0444 99.7589 48.3552 99.7589 49.9573H94.7928C94.6468 48.6465 94.0625 48.0639 93.0401 48.0639C91.8716 48.0639 91.2874 48.6465 91.2874 49.666C91.2874 49.9573 91.2874 50.2486 91.4334 50.5399C91.5795 50.8312 92.1637 51.2682 93.1862 51.8508L95.231 52.7247C95.9613 53.016 96.5455 53.3073 96.9837 53.5985C97.568 53.8898 98.0061 54.3268 98.4443 54.7637C99.3207 55.6376 99.7589 56.8028 99.7589 58.2593C99.9049 59.8614 99.3207 61.3179 98.0061 62.3375Z" fill="#fff"/>
<path d="M124.443 60.881C122.398 62.7744 119.915 63.794 117.14 63.794C114.365 63.794 111.882 62.7744 109.837 60.881C107.792 58.9876 106.77 56.6572 106.77 53.7443C106.77 52.2878 107.062 50.8313 107.5 49.5204C107.792 48.7922 108.23 48.064 108.814 47.3357C110.859 44.7141 113.634 43.2576 117.14 43.2576C120.061 43.2576 122.398 44.2771 124.443 46.1705C126.488 48.064 127.51 50.54 127.51 53.453C127.51 56.5116 126.488 58.9876 124.443 60.881ZM121.084 49.6661C120.061 48.5009 118.747 47.9183 117.14 47.9183C115.533 47.9183 114.219 48.5009 113.196 49.6661C112.174 50.8313 111.736 52.1421 111.736 53.7443C111.736 55.3464 112.174 56.6572 113.196 57.8224C114.219 58.9876 115.533 59.5702 117.14 59.5702C118.601 59.5702 119.915 58.9876 120.937 57.8224C121.96 56.6572 122.398 55.3464 122.398 53.8899C122.544 52.1421 121.96 50.8313 121.084 49.6661Z" fill="#fff"/>
<path d="M149.857 53.3072C149.419 54.3268 148.981 55.055 148.251 55.6376C147.52 56.3658 146.644 56.8028 145.622 57.0941C144.891 57.2397 143.869 57.3854 142.554 57.3854H140.363V63.5026H135.543V43.8401H141.97C142.554 43.8401 143.139 43.8401 143.577 43.8401C144.161 43.8401 144.745 43.9857 145.183 43.9857C146.352 44.1314 147.374 44.5683 148.105 45.1509C149.711 46.4618 150.442 48.2095 150.442 50.3943C150.295 51.4138 150.149 52.4333 149.857 53.3072ZM144.453 48.6465C144.015 48.3552 143.139 48.2095 142.116 48.2095H140.217V52.8703H142.262C143.285 52.8703 144.015 52.7246 144.453 52.4333C145.037 51.9964 145.329 51.4138 145.329 50.5399C145.476 49.666 145.183 49.0834 144.453 48.6465Z" fill="#fff"/>
<path d="M169.137 63.5026V55.6376H162.711V63.5026H157.745V43.8401H162.711V51.2682H169.137V43.8401H174.249V63.5026H169.137Z" fill="#fff"/>
<path d="M187.979 43.8401H183.013V63.5026H187.979V43.8401Z" fill="#fff"/>
<path d="M207.259 43.8401H203.315L195.428 63.5026H200.832L201.855 60.5896L203.169 56.6571L205.214 49.9573L207.259 56.6571L208.573 60.5896L209.596 63.5026H215L207.259 43.8401Z" fill="#fff"/>
</g>
<defs>
<clipPath id="clip0_125_77">
<rect width="215" height="82" fill="white"/>
</clipPath>
</defs>
</svg>
