<?xml version="1.0" encoding="utf-8"?>
<!-- Generator: Adobe Illustrator 24.1.3, SVG Export Plug-In . SVG Version: 6.00 Build 0)  -->
<svg version="1.1" id="Layer_1" xmlns="http://www.w3.org/2000/svg" xmlns:xlink="http://www.w3.org/1999/xlink" x="0px" y="0px"
	 viewBox="0 0 83.1 82" style="enable-background:new 0 0 83.1 82;" xml:space="preserve">
<style type="text/css">
	.st0{clip-path:url(#SVGID_2_);}
	.st1{fill-rule:evenodd;clip-rule:evenodd;fill:#73992D;}
	.st2{fill-rule:evenodd;clip-rule:evenodd;fill:#425C1C;}
</style>
<g>
	<defs>
		<rect id="SVGID_1_" width="215" height="82"/>
	</defs>
	<clipPath id="SVGID_2_">
		<use xlink:href="#SVGID_1_"  style="overflow:visible;"/>
	</clipPath>
	<g class="st0">
		<path class="st1" d="M60.2,78.4c2,0,3.1,0,3.1,0c-5.1-1.2-8.8-5.7-8.9-10.9c-0.1-5.2,3.5-9.9,8.5-11.2c2.2-0.3,3.8-0.4,5-0.4
			c2-0.1,3.5-0.6,4.5-1.2c1.9-1.2,2-3.1,0.4-6c-0.4-0.6-0.4-1.2-0.3-1.6c0.3-0.6,0.6-1,0.9-1.6c0.6-0.6,0.6-1-0.1-1
			c-0.6,0-1.2,0-1.6,0c-0.9,0-1.5-0.3-1.8-0.7c1.2,0,1.9-0.3,2.5-0.7c1-0.9,1.2-1.7,0.4-2.3L71,39c0,0,0.7-0.7,2.3-2.3
			c1.3-1.6,0.7-3.1-2-4.5c-1.3-0.6-3.1-1.6-5.1-3.1c1.2-1,2-2,2.6-3.2c-0.4,0.6-1.6,1.3-3.2,2.2c-1-8.6-6.6-16-14.5-19.5
			c7.3,9.2,8.3,20.2,2.9,33.5C43.4,62,45.4,74.1,60.2,78.4z"/>
		<path class="st2" d="M62.8,7.7c-14.6-7.3-32.1-4.2-43.4,7.6C8.2,27.1,6.1,44.7,14.2,58.8c8,14.1,24.4,21.3,40.3,17.8
			c-16.7,4.8-34.3-2.2-43.2-16.9c-8.9-14.9-6.6-33.8,5.6-46C28.9,1.5,47.9-1,62.8,7.7z"/>
		<path class="st2" d="M8.9,43.5c-1.5,4.2-0.7,8.7,1.9,12.4c-1.6-4.7-1.2-9.8,1.2-14c2.3-4.4,6.3-7.4,11.1-8.7
			c-5.3,0.7-9.3,3.5-12.3,8.2c1.8-7.4,6.9-12.4,15.2-15C16.1,28.1,10.4,33.9,8.9,43.5z"/>
		<path class="st2" d="M30.1,74.4c3.1,1.3,4.5,2,4.5,2c-7.3-2.9-11.5-10.8-9.8-18.6C22.1,63.9,24.4,71.1,30.1,74.4z"/>
		<path class="st2" d="M35.3,4.2c-1,0.1-1.6,0.6-1.8,1.2C38.9,4.8,44.3,5.7,48.9,8C45,5.5,40.2,4.2,35.3,4.2z"/>
		<path class="st2" d="M19.3,36.1c1.3,1,2.6,1.6,3.8,2.2c-1-0.9-1.9-1.9-2.9-2.8c3.7,0,5.8,1.9,6.7,5.5
			C22.8,41.2,20.3,39.6,19.3,36.1z"/>
		<path class="st2" d="M24.5,32.9c1.5,0,2.8,0,3.9-0.3c-1.2-0.1-2.5-0.4-3.7-0.6c2.8-1.9,5.4-1.6,7.9,0.7
			C29.8,35.1,27,35.2,24.5,32.9z"/>
		<path class="st1" d="M27.2,26.4c1.5-0.3,2.8-0.6,3.8-1c-1.2,0-2.5,0-3.7,0c2.3-2.3,5-2.5,7.9-0.7C32.7,27.5,30.1,28.1,27.2,26.4z"
			/>
		<path class="st2" d="M20.3,26.9c0.7-1.3,1.3-2.5,1.6-3.6c-0.7,1-1.5,1.9-2.2,2.9c-0.3-3.3,1.2-5.5,4.4-6.7
			C24.7,23.2,23.4,25.6,20.3,26.9z"/>
		<path class="st2" d="M42.5,8c0.7,1.3,1.5,2.3,2.3,3.2C44.4,10,44,8.9,43.4,7.7c3.1,1.3,4.2,3.8,3.5,7.1
			C43.4,13.7,41.9,11.4,42.5,8z"/>
		<path class="st2" d="M60.2,7.4c0.1,1,0.4,1.7,0.9,2.5c0-0.7-0.1-1.6-0.1-2.5c1.6,1.5,1.9,3.2,0.7,5.2C59.6,11.2,59.2,9.5,60.2,7.4
			z"/>
		<path class="st1" d="M64.6,9c1.3,0.7,2.5,1.3,3.5,1.6c-0.9-0.7-1.9-1.6-2.9-2.3c3.4-0.3,5.4,1.3,6.4,4.5
			C68.2,13.5,65.7,12.2,64.6,9z"/>
		<path class="st2" d="M62.8,5.1c1.5-0.3,2.8-0.6,3.8-1c-1.2,0-2.5,0-3.7,0.1c2.3-2.3,5-2.6,7.9-0.7C68.4,6.3,65.7,6.7,62.8,5.1z"/>
		<path class="st1" d="M25.9,57.4c0.6-1.6,0.9-2.9,1-4.2c-0.6,1.2-1.2,2.3-1.9,3.6c-1-3.5,0.1-6.1,3.5-8
			C29.8,52.6,28.9,55.5,25.9,57.4z"/>
		<path class="st2" d="M22.6,61.2c-0.6-1.5-1.3-2.8-2-3.8c0.3,1.3,0.7,2.6,1,3.9c-3.1-1.9-3.9-4.7-2.8-8.3
			C22.5,54.9,23.8,57.5,22.6,61.2z"/>
		<path class="st2" d="M25.4,62.3c1.5-0.9,2.5-1.7,3.4-2.6c-1.2,0.6-2.5,1-3.8,1.6c1.5-3.3,3.9-4.7,7.7-4.1
			C31.5,61,29.1,62.8,25.4,62.3z"/>
		<path class="st1" d="M32.7,0C17.4,3.3,5.3,15,1.3,30.1c-3.9,15.1,1,31.2,12.9,41.5C26,82,42.6,84.8,57.1,78.9
			c-14.2,4.5-29.8,1-40.8-9C5.6,60,0.9,44.9,4.2,30.3C7.6,15.9,18.4,4.2,32.7,0z"/>
	</g>
</g>
</svg>
